<svg xmlns="http://www.w3.org/2000/svg" width="1100" height="700">
<rect width="100%" height="100%" fill="white"/>
<text x="550.0" y="36" text-anchor="middle" font-size="28" font-family="Arial" fill="#111">Top 12 Sources by Article Count</text>
<text x="310" y="96.25" text-anchor="end" font-size="15" font-family="Arial" fill="#333">News Online Today</text>
<rect x="320" y="70" width="740" height="35" fill="#2563eb" rx="3"/>
<text x="1068" y="96.25" font-size="14" font-family="Arial" fill="#111">111.00</text>
<text x="310" y="148.25" text-anchor="end" font-size="15" font-family="Arial" fill="#333">Homeland Illumination</text>
<rect x="320" y="122" width="426" height="35" fill="#2563eb" rx="3"/>
<text x="754" y="148.25" font-size="14" font-family="Arial" fill="#111">64.00</text>
<text x="310" y="200.25" text-anchor="end" font-size="15" font-family="Arial" fill="#333">Kronos Star</text>
<rect x="320" y="174" width="413" height="35" fill="#2563eb" rx="3"/>
<text x="741" y="200.25" font-size="14" font-family="Arial" fill="#111">62.00</text>
<text x="310" y="252.25" text-anchor="end" font-size="15" font-family="Arial" fill="#333">The Abila Post</text>
<rect x="320" y="226" width="360" height="35" fill="#2563eb" rx="3"/>
<text x="688" y="252.25" font-size="14" font-family="Arial" fill="#111">54.00</text>
<text x="310" y="304.25" text-anchor="end" font-size="15" font-family="Arial" fill="#333">Centrum Sentinel</text>
<rect x="320" y="278" width="240" height="35" fill="#2563eb" rx="3"/>
<text x="568" y="304.25" font-size="14" font-family="Arial" fill="#111">36.00</text>
<text x="310" y="356.25" text-anchor="end" font-size="15" font-family="Arial" fill="#333">Tethys News</text>
<rect x="320" y="330" width="233" height="35" fill="#2563eb" rx="3"/>
<text x="561" y="356.25" font-size="14" font-family="Arial" fill="#111">35.00</text>
<text x="310" y="408.25" text-anchor="end" font-size="15" font-family="Arial" fill="#333">Modern Rubicon</text>
<rect x="320" y="382" width="200" height="35" fill="#2563eb" rx="3"/>
<text x="528" y="408.25" font-size="14" font-family="Arial" fill="#111">30.00</text>
<text x="310" y="460.25" text-anchor="end" font-size="15" font-family="Arial" fill="#333">The Guide</text>
<rect x="320" y="434" width="186" height="35" fill="#2563eb" rx="3"/>
<text x="514" y="460.25" font-size="14" font-family="Arial" fill="#111">28.00</text>
<text x="310" y="512.25" text-anchor="end" font-size="15" font-family="Arial" fill="#333">Worldwise</text>
<rect x="320" y="486" width="186" height="35" fill="#2563eb" rx="3"/>
<text x="514" y="512.25" font-size="14" font-family="Arial" fill="#111">28.00</text>
<text x="310" y="564.25" text-anchor="end" font-size="15" font-family="Arial" fill="#333">The Truth</text>
<rect x="320" y="538" width="186" height="35" fill="#2563eb" rx="3"/>
<text x="514" y="564.25" font-size="14" font-family="Arial" fill="#111">28.00</text>
<text x="310" y="616.25" text-anchor="end" font-size="15" font-family="Arial" fill="#333">The Wrap</text>
<rect x="320" y="590" width="173" height="35" fill="#2563eb" rx="3"/>
<text x="501" y="616.25" font-size="14" font-family="Arial" fill="#111">26.00</text>
<text x="310" y="668.25" text-anchor="end" font-size="15" font-family="Arial" fill="#333">The Orb</text>
<rect x="320" y="642" width="173" height="35" fill="#2563eb" rx="3"/>
<text x="501" y="668.25" font-size="14" font-family="Arial" fill="#111">26.00</text>
</svg>