<svg xmlns="http://www.w3.org/2000/svg" width="1100" height="700">
<rect width="100%" height="100%" fill="white"/>
<text x="550.0" y="36" text-anchor="middle" font-size="28" font-family="Arial" fill="#111">Top Sources by Author-Byline Ratio</text>
<text x="310" y="96.25" text-anchor="end" font-size="15" font-family="Arial" fill="#333">Homeland Illumination</text>
<rect x="320" y="70" width="740" height="35" fill="#059669" rx="3"/>
<text x="1068" y="96.25" font-size="14" font-family="Arial" fill="#111">1.00</text>
<text x="310" y="148.25" text-anchor="end" font-size="15" font-family="Arial" fill="#333">Kronos Star</text>
<rect x="320" y="122" width="740" height="35" fill="#059669" rx="3"/>
<text x="1068" y="148.25" font-size="14" font-family="Arial" fill="#111">1.00</text>
<text x="310" y="200.25" text-anchor="end" font-size="15" font-family="Arial" fill="#333">The Wrap</text>
<rect x="320" y="174" width="0" height="35" fill="#059669" rx="3"/>
<text x="328" y="200.25" font-size="14" font-family="Arial" fill="#111">0.00</text>
<text x="310" y="252.25" text-anchor="end" font-size="15" font-family="Arial" fill="#333">The Orb</text>
<rect x="320" y="226" width="0" height="35" fill="#059669" rx="3"/>
<text x="328" y="252.25" font-size="14" font-family="Arial" fill="#111">0.00</text>
<text x="310" y="304.25" text-anchor="end" font-size="15" font-family="Arial" fill="#333">Tethys News</text>
<rect x="320" y="278" width="0" height="35" fill="#059669" rx="3"/>
<text x="328" y="304.25" font-size="14" font-family="Arial" fill="#111">0.00</text>
<text x="310" y="356.25" text-anchor="end" font-size="15" font-family="Arial" fill="#333">The World</text>
<rect x="320" y="330" width="0" height="35" fill="#059669" rx="3"/>
<text x="328" y="356.25" font-size="14" font-family="Arial" fill="#111">0.00</text>
<text x="310" y="408.25" text-anchor="end" font-size="15" font-family="Arial" fill="#333">World Source</text>
<rect x="320" y="382" width="0" height="35" fill="#059669" rx="3"/>
<text x="328" y="408.25" font-size="14" font-family="Arial" fill="#111">0.00</text>
<text x="310" y="460.25" text-anchor="end" font-size="15" font-family="Arial" fill="#333">International Times</text>
<rect x="320" y="434" width="0" height="35" fill="#059669" rx="3"/>
<text x="328" y="460.25" font-size="14" font-family="Arial" fill="#111">0.00</text>
<text x="310" y="512.25" text-anchor="end" font-size="15" font-family="Arial" fill="#333">Athena Speaks</text>
<rect x="320" y="486" width="0" height="35" fill="#059669" rx="3"/>
<text x="328" y="512.25" font-size="14" font-family="Arial" fill="#111">0.00</text>
<text x="310" y="564.25" text-anchor="end" font-size="15" font-family="Arial" fill="#333">Daily Pegasus</text>
<rect x="320" y="538" width="0" height="35" fill="#059669" rx="3"/>
<text x="328" y="564.25" font-size="14" font-family="Arial" fill="#111">0.00</text>
<text x="310" y="616.25" text-anchor="end" font-size="15" font-family="Arial" fill="#333">The Guide</text>
<rect x="320" y="590" width="0" height="35" fill="#059669" rx="3"/>
<text x="328" y="616.25" font-size="14" font-family="Arial" fill="#111">0.00</text>
<text x="310" y="668.25" text-anchor="end" font-size="15" font-family="Arial" fill="#333">Modern Rubicon</text>
<rect x="320" y="642" width="0" height="35" fill="#059669" rx="3"/>
<text x="328" y="668.25" font-size="14" font-family="Arial" fill="#111">0.00</text>
</svg>