<svg xmlns="http://www.w3.org/2000/svg" width="1100" height="700">
<rect width="100%" height="100%" fill="white"/>
<text x="550.0" y="36" text-anchor="middle" font-size="28" font-family="Arial" fill="#111">Top Sources by Cross-Source Title Reuse</text>
<text x="310" y="96.25" text-anchor="end" font-size="15" font-family="Arial" fill="#333">News Online Today</text>
<rect x="320" y="70" width="740" height="35" fill="#d97706" rx="3"/>
<text x="1068" y="96.25" font-size="14" font-family="Arial" fill="#111">102.00</text>
<text x="310" y="148.25" text-anchor="end" font-size="15" font-family="Arial" fill="#333">Kronos Star</text>
<rect x="320" y="122" width="195" height="35" fill="#d97706" rx="3"/>
<text x="523" y="148.25" font-size="14" font-family="Arial" fill="#111">27.00</text>
<text x="310" y="200.25" text-anchor="end" font-size="15" font-family="Arial" fill="#333">The Abila Post</text>
<rect x="320" y="174" width="174" height="35" fill="#d97706" rx="3"/>
<text x="502" y="200.25" font-size="14" font-family="Arial" fill="#111">24.00</text>
<text x="310" y="252.25" text-anchor="end" font-size="15" font-family="Arial" fill="#333">Homeland Illumination</text>
<rect x="320" y="226" width="166" height="35" fill="#d97706" rx="3"/>
<text x="494" y="252.25" font-size="14" font-family="Arial" fill="#111">23.00</text>
<text x="310" y="304.25" text-anchor="end" font-size="15" font-family="Arial" fill="#333">Central Bulletin</text>
<rect x="320" y="278" width="152" height="35" fill="#d97706" rx="3"/>
<text x="480" y="304.25" font-size="14" font-family="Arial" fill="#111">21.00</text>
<text x="310" y="356.25" text-anchor="end" font-size="15" font-family="Arial" fill="#333">International News</text>
<rect x="320" y="330" width="145" height="35" fill="#d97706" rx="3"/>
<text x="473" y="356.25" font-size="14" font-family="Arial" fill="#111">20.00</text>
<text x="310" y="408.25" text-anchor="end" font-size="15" font-family="Arial" fill="#333">All News Today</text>
<rect x="320" y="382" width="130" height="35" fill="#d97706" rx="3"/>
<text x="458" y="408.25" font-size="14" font-family="Arial" fill="#111">18.00</text>
<text x="310" y="460.25" text-anchor="end" font-size="15" font-family="Arial" fill="#333">The World</text>
<rect x="320" y="434" width="123" height="35" fill="#d97706" rx="3"/>
<text x="451" y="460.25" font-size="14" font-family="Arial" fill="#111">17.00</text>
<text x="310" y="512.25" text-anchor="end" font-size="15" font-family="Arial" fill="#333">Who What News</text>
<rect x="320" y="486" width="101" height="35" fill="#d97706" rx="3"/>
<text x="429" y="512.25" font-size="14" font-family="Arial" fill="#111">14.00</text>
<text x="310" y="564.25" text-anchor="end" font-size="15" font-family="Arial" fill="#333">International Times</text>
<rect x="320" y="538" width="72" height="35" fill="#d97706" rx="3"/>
<text x="400" y="564.25" font-size="14" font-family="Arial" fill="#111">10.00</text>
<text x="310" y="616.25" text-anchor="end" font-size="15" font-family="Arial" fill="#333">World Source</text>
<rect x="320" y="590" width="58" height="35" fill="#d97706" rx="3"/>
<text x="386" y="616.25" font-size="14" font-family="Arial" fill="#111">8.00</text>
<text x="310" y="668.25" text-anchor="end" font-size="15" font-family="Arial" fill="#333">The Explainer</text>
<rect x="320" y="642" width="29" height="35" fill="#d97706" rx="3"/>
<text x="357" y="668.25" font-size="14" font-family="Arial" fill="#111">4.00</text>
</svg>