<svg xmlns="http://www.w3.org/2000/svg" width="1100" height="700">
<rect width="100%" height="100%" fill="white"/>
<text x="550.0" y="36" text-anchor="middle" font-size="28" font-family="Arial" fill="#111">Heuristic Score: Primary (+) vs Derivative (-)</text>
<text x="310" y="89.5" text-anchor="end" font-size="15" font-family="Arial" fill="#333">Homeland Illumination</text>
<rect x="320" y="70" width="740" height="26" fill="#7c3aed" rx="3"/>
<text x="1068" y="89.5" font-size="14" font-family="Arial" fill="#111">1.64</text>
<text x="310" y="128.5" text-anchor="end" font-size="15" font-family="Arial" fill="#333">Kronos Star</text>
<rect x="320" y="109" width="705" height="26" fill="#7c3aed" rx="3"/>
<text x="1033" y="128.5" font-size="14" font-family="Arial" fill="#111">1.56</text>
<text x="310" y="167.5" text-anchor="end" font-size="15" font-family="Arial" fill="#333">The Wrap</text>
<rect x="320" y="148" width="0" height="26" fill="#7c3aed" rx="3"/>
<text x="328" y="167.5" font-size="14" font-family="Arial" fill="#111">0.00</text>
<text x="310" y="206.5" text-anchor="end" font-size="15" font-family="Arial" fill="#333">Tethys News</text>
<rect x="320" y="187" width="0" height="26" fill="#7c3aed" rx="3"/>
<text x="328" y="206.5" font-size="14" font-family="Arial" fill="#111">0.00</text>
<text x="310" y="245.5" text-anchor="end" font-size="15" font-family="Arial" fill="#333">The Guide</text>
<rect x="320" y="226" width="0" height="26" fill="#7c3aed" rx="3"/>
<text x="328" y="245.5" font-size="14" font-family="Arial" fill="#111">0.00</text>
<text x="310" y="284.5" text-anchor="end" font-size="15" font-family="Arial" fill="#333">Modern Rubicon</text>
<rect x="320" y="265" width="0" height="26" fill="#7c3aed" rx="3"/>
<text x="328" y="284.5" font-size="14" font-family="Arial" fill="#111">0.00</text>
<text x="310" y="323.5" text-anchor="end" font-size="15" font-family="Arial" fill="#333">Worldwise</text>
<rect x="320" y="304" width="0" height="26" fill="#7c3aed" rx="3"/>
<text x="328" y="323.5" font-size="14" font-family="Arial" fill="#111">0.00</text>
<text x="310" y="362.5" text-anchor="end" font-size="15" font-family="Arial" fill="#333">Centrum Sentinel</text>
<rect x="320" y="343" width="0" height="26" fill="#7c3aed" rx="3"/>
<text x="328" y="362.5" font-size="14" font-family="Arial" fill="#111">0.00</text>
<text x="310" y="401.5" text-anchor="end" font-size="15" font-family="Arial" fill="#333">International Times</text>
<rect x="320" y="382" width="-322" height="26" fill="#7c3aed" rx="3"/>
<text x="6" y="401.5" font-size="14" font-family="Arial" fill="#111">-0.71</text>
<text x="310" y="440.5" text-anchor="end" font-size="15" font-family="Arial" fill="#333">World Source</text>
<rect x="320" y="421" width="-400" height="26" fill="#7c3aed" rx="3"/>
<text x="-72" y="440.5" font-size="14" font-family="Arial" fill="#111">-0.89</text>
<text x="310" y="479.5" text-anchor="end" font-size="15" font-family="Arial" fill="#333">News Online Today</text>
<rect x="320" y="460" width="-414" height="26" fill="#7c3aed" rx="3"/>
<text x="-86" y="479.5" font-size="14" font-family="Arial" fill="#111">-0.92</text>
<text x="310" y="518.5" text-anchor="end" font-size="15" font-family="Arial" fill="#333">Who What News</text>
<rect x="320" y="499" width="-420" height="26" fill="#7c3aed" rx="3"/>
<text x="-92" y="518.5" font-size="14" font-family="Arial" fill="#111">-0.93</text>
<text x="310" y="557.5" text-anchor="end" font-size="15" font-family="Arial" fill="#333">The World</text>
<rect x="320" y="538" width="-451" height="26" fill="#7c3aed" rx="3"/>
<text x="-123" y="557.5" font-size="14" font-family="Arial" fill="#111">-1.00</text>
<text x="310" y="596.5" text-anchor="end" font-size="15" font-family="Arial" fill="#333">Central Bulletin</text>
<rect x="320" y="577" width="-451" height="26" fill="#7c3aed" rx="3"/>
<text x="-123" y="596.5" font-size="14" font-family="Arial" fill="#111">-1.00</text>
<text x="310" y="635.5" text-anchor="end" font-size="15" font-family="Arial" fill="#333">All News Today</text>
<rect x="320" y="616" width="-451" height="26" fill="#7c3aed" rx="3"/>
<text x="-123" y="635.5" font-size="14" font-family="Arial" fill="#111">-1.00</text>
<text x="310" y="674.5" text-anchor="end" font-size="15" font-family="Arial" fill="#333">International News</text>
<rect x="320" y="655" width="-451" height="26" fill="#7c3aed" rx="3"/>
<text x="-123" y="674.5" font-size="14" font-family="Arial" fill="#111">-1.00</text>
</svg>