<svg xmlns="http://www.w3.org/2000/svg" width="1150" height="720">
<rect width="100%" height="100%" fill="white"/>
<text x="575.0" y="36" text-anchor="middle" font-size="28" font-family="Arial" fill="#111">Anti-POK Framing Index (negative - positive words)</text>
<text x="350" y="96.25" text-anchor="end" font-size="15" font-family="Arial" fill="#333">Central Bulletin</text>
<rect x="360" y="70" width="740" height="35" fill="#b91c1c" rx="3"/>
<text x="1108" y="96.25" font-size="14" font-family="Arial" fill="#111">27</text>
<text x="350" y="148.25" text-anchor="end" font-size="15" font-family="Arial" fill="#333">News Online Today</text>
<rect x="360" y="122" width="685" height="35" fill="#b91c1c" rx="3"/>
<text x="1053" y="148.25" font-size="14" font-family="Arial" fill="#111">25</text>
<text x="350" y="200.25" text-anchor="end" font-size="15" font-family="Arial" fill="#333">The Explainer</text>
<rect x="360" y="174" width="630" height="35" fill="#b91c1c" rx="3"/>
<text x="998" y="200.25" font-size="14" font-family="Arial" fill="#111">23</text>
<text x="350" y="252.25" text-anchor="end" font-size="15" font-family="Arial" fill="#333">The Abila Post</text>
<rect x="360" y="226" width="602" height="35" fill="#b91c1c" rx="3"/>
<text x="970" y="252.25" font-size="14" font-family="Arial" fill="#111">22</text>
<text x="350" y="304.25" text-anchor="end" font-size="15" font-family="Arial" fill="#333">International News</text>
<rect x="360" y="278" width="575" height="35" fill="#b91c1c" rx="3"/>
<text x="943" y="304.25" font-size="14" font-family="Arial" fill="#111">21</text>
<text x="350" y="356.25" text-anchor="end" font-size="15" font-family="Arial" fill="#333">News Desk</text>
<rect x="360" y="330" width="520" height="35" fill="#b91c1c" rx="3"/>
<text x="888" y="356.25" font-size="14" font-family="Arial" fill="#111">19</text>
<text x="350" y="408.25" text-anchor="end" font-size="15" font-family="Arial" fill="#333">The Guide</text>
<rect x="360" y="382" width="520" height="35" fill="#b91c1c" rx="3"/>
<text x="888" y="408.25" font-size="14" font-family="Arial" fill="#111">19</text>
<text x="350" y="460.25" text-anchor="end" font-size="15" font-family="Arial" fill="#333">Athena Speaks</text>
<rect x="360" y="434" width="411" height="35" fill="#b91c1c" rx="3"/>
<text x="779" y="460.25" font-size="14" font-family="Arial" fill="#111">15</text>
<text x="350" y="512.25" text-anchor="end" font-size="15" font-family="Arial" fill="#333">Everyday News</text>
<rect x="360" y="486" width="411" height="35" fill="#b91c1c" rx="3"/>
<text x="779" y="512.25" font-size="14" font-family="Arial" fill="#111">15</text>
<text x="350" y="564.25" text-anchor="end" font-size="15" font-family="Arial" fill="#333">Kronos Star</text>
<rect x="360" y="538" width="411" height="35" fill="#b91c1c" rx="3"/>
<text x="779" y="564.25" font-size="14" font-family="Arial" fill="#111">15</text>
<text x="350" y="616.25" text-anchor="end" font-size="15" font-family="Arial" fill="#333">The Continent</text>
<rect x="360" y="590" width="328" height="35" fill="#b91c1c" rx="3"/>
<text x="696" y="616.25" font-size="14" font-family="Arial" fill="#111">12</text>
<text x="350" y="668.25" text-anchor="end" font-size="15" font-family="Arial" fill="#333">The Wrap</text>
<rect x="360" y="642" width="301" height="35" fill="#b91c1c" rx="3"/>
<text x="669" y="668.25" font-size="14" font-family="Arial" fill="#111">11</text>
</svg>