<svg xmlns="http://www.w3.org/2000/svg" width="1150" height="720">
<rect width="100%" height="100%" fill="white"/>
<text x="575.0" y="36" text-anchor="middle" font-size="28" font-family="Arial" fill="#111">Government Tone Score (positive - negative words)</text>
<text x="350" y="96.25" text-anchor="end" font-size="15" font-family="Arial" fill="#333">Who What News</text>
<rect x="360" y="70" width="740" height="35" fill="#1d4ed8" rx="3"/>
<text x="1108" y="96.25" font-size="14" font-family="Arial" fill="#111">2</text>
<text x="350" y="148.25" text-anchor="end" font-size="15" font-family="Arial" fill="#333">The Orb</text>
<rect x="360" y="122" width="-370" height="35" fill="#1d4ed8" rx="3"/>
<text x="-2" y="148.25" font-size="14" font-family="Arial" fill="#111">-1</text>
<text x="350" y="200.25" text-anchor="end" font-size="15" font-family="Arial" fill="#333">The Tulip</text>
<rect x="360" y="174" width="-1110" height="35" fill="#1d4ed8" rx="3"/>
<text x="-742" y="200.25" font-size="14" font-family="Arial" fill="#111">-3</text>
<text x="350" y="252.25" text-anchor="end" font-size="15" font-family="Arial" fill="#333">Worldwise</text>
<rect x="360" y="226" width="-1110" height="35" fill="#1d4ed8" rx="3"/>
<text x="-742" y="252.25" font-size="14" font-family="Arial" fill="#111">-3</text>
<text x="350" y="304.25" text-anchor="end" font-size="15" font-family="Arial" fill="#333">Homeland Illumination</text>
<rect x="360" y="278" width="-1480" height="35" fill="#1d4ed8" rx="3"/>
<text x="-1112" y="304.25" font-size="14" font-family="Arial" fill="#111">-4</text>
<text x="350" y="356.25" text-anchor="end" font-size="15" font-family="Arial" fill="#333">The General Post</text>
<rect x="360" y="330" width="-1480" height="35" fill="#1d4ed8" rx="3"/>
<text x="-1112" y="356.25" font-size="14" font-family="Arial" fill="#111">-4</text>
<text x="350" y="408.25" text-anchor="end" font-size="15" font-family="Arial" fill="#333">The Light of Truth</text>
<rect x="360" y="382" width="-1480" height="35" fill="#1d4ed8" rx="3"/>
<text x="-1112" y="408.25" font-size="14" font-family="Arial" fill="#111">-4</text>
<text x="350" y="460.25" text-anchor="end" font-size="15" font-family="Arial" fill="#333">The World</text>
<rect x="360" y="434" width="-1480" height="35" fill="#1d4ed8" rx="3"/>
<text x="-1112" y="460.25" font-size="14" font-family="Arial" fill="#111">-4</text>
<text x="350" y="512.25" text-anchor="end" font-size="15" font-family="Arial" fill="#333">All News Today</text>
<rect x="360" y="486" width="-2590" height="35" fill="#1d4ed8" rx="3"/>
<text x="-2222" y="512.25" font-size="14" font-family="Arial" fill="#111">-7</text>
<text x="350" y="564.25" text-anchor="end" font-size="15" font-family="Arial" fill="#333">Daily Pegasus</text>
<rect x="360" y="538" width="-2590" height="35" fill="#1d4ed8" rx="3"/>
<text x="-2222" y="564.25" font-size="14" font-family="Arial" fill="#111">-7</text>
<text x="350" y="616.25" text-anchor="end" font-size="15" font-family="Arial" fill="#333">The Truth</text>
<rect x="360" y="590" width="-3330" height="35" fill="#1d4ed8" rx="3"/>
<text x="-2962" y="616.25" font-size="14" font-family="Arial" fill="#111">-9</text>
<text x="350" y="668.25" text-anchor="end" font-size="15" font-family="Arial" fill="#333">World Journal</text>
<rect x="360" y="642" width="-3330" height="35" fill="#1d4ed8" rx="3"/>
<text x="-2962" y="668.25" font-size="14" font-family="Arial" fill="#111">-9</text>
</svg>