<svg xmlns="http://www.w3.org/2000/svg" width="1150" height="720">
<rect width="100%" height="100%" fill="white"/>
<text x="575.0" y="36" text-anchor="middle" font-size="28" font-family="Arial" fill="#111">Crisis Framing Intensity (kidnapping keywords / article)</text>
<text x="350" y="96.25" text-anchor="end" font-size="15" font-family="Arial" fill="#333">The General Post</text>
<rect x="360" y="70" width="740" height="35" fill="#d97706" rx="3"/>
<text x="1108" y="96.25" font-size="14" font-family="Arial" fill="#111">0.63</text>
<text x="350" y="148.25" text-anchor="end" font-size="15" font-family="Arial" fill="#333">The World</text>
<rect x="360" y="122" width="689" height="35" fill="#d97706" rx="3"/>
<text x="1057" y="148.25" font-size="14" font-family="Arial" fill="#111">0.59</text>
<text x="350" y="200.25" text-anchor="end" font-size="15" font-family="Arial" fill="#333">International Times</text>
<rect x="360" y="174" width="502" height="35" fill="#d97706" rx="3"/>
<text x="870" y="200.25" font-size="14" font-family="Arial" fill="#111">0.43</text>
<text x="350" y="252.25" text-anchor="end" font-size="15" font-family="Arial" fill="#333">The Light of Truth</text>
<rect x="360" y="226" width="493" height="35" fill="#d97706" rx="3"/>
<text x="861" y="252.25" font-size="14" font-family="Arial" fill="#111">0.42</text>
<text x="350" y="304.25" text-anchor="end" font-size="15" font-family="Arial" fill="#333">Everyday News</text>
<rect x="360" y="278" width="468" height="35" fill="#d97706" rx="3"/>
<text x="836" y="304.25" font-size="14" font-family="Arial" fill="#111">0.40</text>
<text x="350" y="356.25" text-anchor="end" font-size="15" font-family="Arial" fill="#333">The Continent</text>
<rect x="360" y="330" width="468" height="35" fill="#d97706" rx="3"/>
<text x="836" y="356.25" font-size="14" font-family="Arial" fill="#111">0.40</text>
<text x="350" y="408.25" text-anchor="end" font-size="15" font-family="Arial" fill="#333">Who What News</text>
<rect x="360" y="382" width="390" height="35" fill="#d97706" rx="3"/>
<text x="758" y="408.25" font-size="14" font-family="Arial" fill="#111">0.33</text>
<text x="350" y="460.25" text-anchor="end" font-size="15" font-family="Arial" fill="#333">International News</text>
<rect x="360" y="434" width="351" height="35" fill="#d97706" rx="3"/>
<text x="719" y="460.25" font-size="14" font-family="Arial" fill="#111">0.30</text>
<text x="350" y="512.25" text-anchor="end" font-size="15" font-family="Arial" fill="#333">News Desk</text>
<rect x="360" y="486" width="328" height="35" fill="#d97706" rx="3"/>
<text x="696" y="512.25" font-size="14" font-family="Arial" fill="#111">0.28</text>
<text x="350" y="564.25" text-anchor="end" font-size="15" font-family="Arial" fill="#333">The Explainer</text>
<rect x="360" y="538" width="328" height="35" fill="#d97706" rx="3"/>
<text x="696" y="564.25" font-size="14" font-family="Arial" fill="#111">0.28</text>
<text x="350" y="616.25" text-anchor="end" font-size="15" font-family="Arial" fill="#333">The Tulip</text>
<rect x="360" y="590" width="308" height="35" fill="#d97706" rx="3"/>
<text x="676" y="616.25" font-size="14" font-family="Arial" fill="#111">0.26</text>
<text x="350" y="668.25" text-anchor="end" font-size="15" font-family="Arial" fill="#333">The Guide</text>
<rect x="360" y="642" width="292" height="35" fill="#d97706" rx="3"/>
<text x="660" y="668.25" font-size="14" font-family="Arial" fill="#111">0.25</text>
</svg>