<svg xmlns="http://www.w3.org/2000/svg" width="1150" height="720">
<rect width="100%" height="100%" fill="white"/>
<text x="575.0" y="36" text-anchor="middle" font-size="28" font-family="Arial" fill="#111">Economic Framing Intensity (IPO/economy keywords / article)</text>
<text x="350" y="96.25" text-anchor="end" font-size="15" font-family="Arial" fill="#333">International News</text>
<rect x="360" y="70" width="740" height="35" fill="#059669" rx="3"/>
<text x="1108" y="96.25" font-size="14" font-family="Arial" fill="#111">0.65</text>
<text x="350" y="148.25" text-anchor="end" font-size="15" font-family="Arial" fill="#333">Worldwise</text>
<rect x="360" y="122" width="731" height="35" fill="#059669" rx="3"/>
<text x="1099" y="148.25" font-size="14" font-family="Arial" fill="#111">0.64</text>
<text x="350" y="200.25" text-anchor="end" font-size="15" font-family="Arial" fill="#333">The Light of Truth</text>
<rect x="360" y="174" width="599" height="35" fill="#059669" rx="3"/>
<text x="967" y="200.25" font-size="14" font-family="Arial" fill="#111">0.53</text>
<text x="350" y="252.25" text-anchor="end" font-size="15" font-family="Arial" fill="#333">The Guide</text>
<rect x="360" y="226" width="528" height="35" fill="#059669" rx="3"/>
<text x="896" y="252.25" font-size="14" font-family="Arial" fill="#111">0.46</text>
<text x="350" y="304.25" text-anchor="end" font-size="15" font-family="Arial" fill="#333">The Truth</text>
<rect x="360" y="278" width="487" height="35" fill="#059669" rx="3"/>
<text x="855" y="304.25" font-size="14" font-family="Arial" fill="#111">0.43</text>
<text x="350" y="356.25" text-anchor="end" font-size="15" font-family="Arial" fill="#333">The World</text>
<rect x="360" y="330" width="401" height="35" fill="#059669" rx="3"/>
<text x="769" y="356.25" font-size="14" font-family="Arial" fill="#111">0.35</text>
<text x="350" y="408.25" text-anchor="end" font-size="15" font-family="Arial" fill="#333">Who What News</text>
<rect x="360" y="382" width="379" height="35" fill="#059669" rx="3"/>
<text x="747" y="408.25" font-size="14" font-family="Arial" fill="#111">0.33</text>
<text x="350" y="460.25" text-anchor="end" font-size="15" font-family="Arial" fill="#333">The Tulip</text>
<rect x="360" y="434" width="359" height="35" fill="#059669" rx="3"/>
<text x="727" y="460.25" font-size="14" font-family="Arial" fill="#111">0.32</text>
<text x="350" y="512.25" text-anchor="end" font-size="15" font-family="Arial" fill="#333">The General Post</text>
<rect x="360" y="486" width="299" height="35" fill="#059669" rx="3"/>
<text x="667" y="512.25" font-size="14" font-family="Arial" fill="#111">0.26</text>
<text x="350" y="564.25" text-anchor="end" font-size="15" font-family="Arial" fill="#333">Kronos Star</text>
<rect x="360" y="538" width="238" height="35" fill="#059669" rx="3"/>
<text x="606" y="564.25" font-size="14" font-family="Arial" fill="#111">0.21</text>
<text x="350" y="616.25" text-anchor="end" font-size="15" font-family="Arial" fill="#333">Everyday News</text>
<rect x="360" y="590" width="227" height="35" fill="#059669" rx="3"/>
<text x="595" y="616.25" font-size="14" font-family="Arial" fill="#111">0.20</text>
<text x="350" y="668.25" text-anchor="end" font-size="15" font-family="Arial" fill="#333">The Continent</text>
<rect x="360" y="642" width="227" height="35" fill="#059669" rx="3"/>
<text x="595" y="668.25" font-size="14" font-family="Arial" fill="#111">0.20</text>
</svg>