<svg xmlns="http://www.w3.org/2000/svg" width="1150" height="720">
<rect width="100%" height="100%" fill="white"/>
<text x="575.0" y="36" text-anchor="middle" font-size="28" font-family="Arial" fill="#111">Abila Representation Bias (negative - positive words)</text>
<text x="350" y="96.25" text-anchor="end" font-size="15" font-family="Arial" fill="#333">The Abila Post</text>
<rect x="360" y="70" width="740" height="35" fill="#7c3aed" rx="3"/>
<text x="1108" y="96.25" font-size="14" font-family="Arial" fill="#111">60</text>
<text x="350" y="148.25" text-anchor="end" font-size="15" font-family="Arial" fill="#333">Athena Speaks</text>
<rect x="360" y="122" width="357" height="35" fill="#7c3aed" rx="3"/>
<text x="725" y="148.25" font-size="14" font-family="Arial" fill="#111">29</text>
<text x="350" y="200.25" text-anchor="end" font-size="15" font-family="Arial" fill="#333">News Online Today</text>
<rect x="360" y="174" width="320" height="35" fill="#7c3aed" rx="3"/>
<text x="688" y="200.25" font-size="14" font-family="Arial" fill="#111">26</text>
<text x="350" y="252.25" text-anchor="end" font-size="15" font-family="Arial" fill="#333">The Explainer</text>
<rect x="360" y="226" width="320" height="35" fill="#7c3aed" rx="3"/>
<text x="688" y="252.25" font-size="14" font-family="Arial" fill="#111">26</text>
<text x="350" y="304.25" text-anchor="end" font-size="15" font-family="Arial" fill="#333">Central Bulletin</text>
<rect x="360" y="278" width="296" height="35" fill="#7c3aed" rx="3"/>
<text x="664" y="304.25" font-size="14" font-family="Arial" fill="#111">24</text>
<text x="350" y="356.25" text-anchor="end" font-size="15" font-family="Arial" fill="#333">News Desk</text>
<rect x="360" y="330" width="283" height="35" fill="#7c3aed" rx="3"/>
<text x="651" y="356.25" font-size="14" font-family="Arial" fill="#111">23</text>
<text x="350" y="408.25" text-anchor="end" font-size="15" font-family="Arial" fill="#333">The Continent</text>
<rect x="360" y="382" width="209" height="35" fill="#7c3aed" rx="3"/>
<text x="577" y="408.25" font-size="14" font-family="Arial" fill="#111">17</text>
<text x="350" y="460.25" text-anchor="end" font-size="15" font-family="Arial" fill="#333">World Journal</text>
<rect x="360" y="434" width="185" height="35" fill="#7c3aed" rx="3"/>
<text x="553" y="460.25" font-size="14" font-family="Arial" fill="#111">15</text>
<text x="350" y="512.25" text-anchor="end" font-size="15" font-family="Arial" fill="#333">International News</text>
<rect x="360" y="486" width="123" height="35" fill="#7c3aed" rx="3"/>
<text x="491" y="512.25" font-size="14" font-family="Arial" fill="#111">10</text>
<text x="350" y="564.25" text-anchor="end" font-size="15" font-family="Arial" fill="#333">Centrum Sentinel</text>
<rect x="360" y="538" width="86" height="35" fill="#7c3aed" rx="3"/>
<text x="454" y="564.25" font-size="14" font-family="Arial" fill="#111">7</text>
<text x="350" y="616.25" text-anchor="end" font-size="15" font-family="Arial" fill="#333">Modern Rubicon</text>
<rect x="360" y="590" width="86" height="35" fill="#7c3aed" rx="3"/>
<text x="454" y="616.25" font-size="14" font-family="Arial" fill="#111">7</text>
<text x="350" y="668.25" text-anchor="end" font-size="15" font-family="Arial" fill="#333">The Light of Truth</text>
<rect x="360" y="642" width="86" height="35" fill="#7c3aed" rx="3"/>
<text x="454" y="668.25" font-size="14" font-family="Arial" fill="#111">7</text>
</svg>