<svg xmlns="http://www.w3.org/2000/svg" width="1180" height="914">
<rect width="100%" height="100%" fill="white"/>
<text x="590" y="38" text-anchor="middle" font-size="28" font-family="Arial" fill="#111">Bias Overview Heatmap (People, Places, Events)</text>
<text x="590" y="62" text-anchor="middle" font-size="14" font-family="Arial" fill="#555">Higher score = stronger negative-leaning representational bias in that dimension</text>
<text x="410.0" y="84" text-anchor="middle" font-size="14" font-family="Arial" fill="#222">People</text>
<text x="590.0" y="84" text-anchor="middle" font-size="14" font-family="Arial" fill="#222">Places</text>
<text x="770.0" y="84" text-anchor="middle" font-size="14" font-family="Arial" fill="#222">Events</text>
<text x="950.0" y="84" text-anchor="middle" font-size="14" font-family="Arial" fill="#222">Overall</text>
<text x="310" y="107.68" text-anchor="end" font-size="13" font-family="Arial" fill="#222">Central Bulletin</text>
<rect x="320" y="90" width="172" height="22" fill="#984848" rx="3"/>
<text x="406.0" y="107.68" text-anchor="middle" font-size="12" font-family="Arial" fill="#fff">0.80</text>
<rect x="500" y="90" width="172" height="22" fill="#cea3a3" rx="3"/>
<text x="586.0" y="107.68" text-anchor="middle" font-size="12" font-family="Arial" fill="#222">0.38</text>
<rect x="680" y="90" width="172" height="22" fill="#7f1d1d" rx="3"/>
<text x="766.0" y="107.68" text-anchor="middle" font-size="12" font-family="Arial" fill="#fff">1.00</text>
<rect x="860" y="90" width="172" height="22" fill="#a25858" rx="3"/>
<text x="946.0" y="107.68" text-anchor="middle" font-size="12" font-family="Arial" fill="#fff">0.73</text>
<text x="310" y="133.68" text-anchor="end" font-size="13" font-family="Arial" fill="#222">The Abila Post</text>
<rect x="320" y="116" width="172" height="22" fill="#9f5454" rx="3"/>
<text x="406.0" y="133.68" text-anchor="middle" font-size="12" font-family="Arial" fill="#fff">0.74</text>
<rect x="500" y="116" width="172" height="22" fill="#7f1d1d" rx="3"/>
<text x="586.0" y="133.68" text-anchor="middle" font-size="12" font-family="Arial" fill="#fff">1.00</text>
<rect x="680" y="116" width="172" height="22" fill="#c79898" rx="3"/>
<text x="766.0" y="133.68" text-anchor="middle" font-size="12" font-family="Arial" fill="#222">0.43</text>
<rect x="860" y="116" width="172" height="22" fill="#a25858" rx="3"/>
<text x="946.0" y="133.68" text-anchor="middle" font-size="12" font-family="Arial" fill="#fff">0.72</text>
<text x="310" y="159.68" text-anchor="end" font-size="13" font-family="Arial" fill="#222">Athena Speaks</text>
<rect x="320" y="142" width="172" height="22" fill="#a96464" rx="3"/>
<text x="406.0" y="159.68" text-anchor="middle" font-size="12" font-family="Arial" fill="#fff">0.67</text>
<rect x="500" y="142" width="172" height="22" fill="#c79797" rx="3"/>
<text x="586.0" y="159.68" text-anchor="middle" font-size="12" font-family="Arial" fill="#222">0.43</text>
<rect x="680" y="142" width="172" height="22" fill="#892f2f" rx="3"/>
<text x="766.0" y="159.68" text-anchor="middle" font-size="12" font-family="Arial" fill="#fff">0.92</text>
<rect x="860" y="142" width="172" height="22" fill="#a86363" rx="3"/>
<text x="946.0" y="159.68" text-anchor="middle" font-size="12" font-family="Arial" fill="#fff">0.67</text>
<text x="310" y="185.68" text-anchor="end" font-size="13" font-family="Arial" fill="#222">News Online Today</text>
<rect x="320" y="168" width="172" height="22" fill="#7f1d1d" rx="3"/>
<text x="406.0" y="185.68" text-anchor="middle" font-size="12" font-family="Arial" fill="#fff">1.00</text>
<rect x="500" y="168" width="172" height="22" fill="#aa6565" rx="3"/>
<text x="586.0" y="185.68" text-anchor="middle" font-size="12" font-family="Arial" fill="#fff">0.66</text>
<rect x="680" y="168" width="172" height="22" fill="#dcbaba" rx="3"/>
<text x="766.0" y="185.68" text-anchor="middle" font-size="12" font-family="Arial" fill="#222">0.27</text>
<rect x="860" y="168" width="172" height="22" fill="#ac6969" rx="3"/>
<text x="946.0" y="185.68" text-anchor="middle" font-size="12" font-family="Arial" fill="#fff">0.64</text>
<text x="310" y="211.68" text-anchor="end" font-size="13" font-family="Arial" fill="#222">News Desk</text>
<rect x="320" y="194" width="172" height="22" fill="#a45c5c" rx="3"/>
<text x="406.0" y="211.68" text-anchor="middle" font-size="12" font-family="Arial" fill="#fff">0.71</text>
<rect x="500" y="194" width="172" height="22" fill="#d1a8a8" rx="3"/>
<text x="586.0" y="211.68" text-anchor="middle" font-size="12" font-family="Arial" fill="#222">0.35</text>
<rect x="680" y="194" width="172" height="22" fill="#923e3e" rx="3"/>
<text x="766.0" y="211.68" text-anchor="middle" font-size="12" font-family="Arial" fill="#fff">0.85</text>
<rect x="860" y="194" width="172" height="22" fill="#ad6b6b" rx="3"/>
<text x="946.0" y="211.68" text-anchor="middle" font-size="12" font-family="Arial" fill="#fff">0.63</text>
<text x="310" y="237.68" text-anchor="end" font-size="13" font-family="Arial" fill="#222">The Explainer</text>
<rect x="320" y="220" width="172" height="22" fill="#984747" rx="3"/>
<text x="406.0" y="237.68" text-anchor="middle" font-size="12" font-family="Arial" fill="#fff">0.80</text>
<rect x="500" y="220" width="172" height="22" fill="#cca0a0" rx="3"/>
<text x="586.0" y="237.68" text-anchor="middle" font-size="12" font-family="Arial" fill="#222">0.39</text>
<rect x="680" y="220" width="172" height="22" fill="#b37575" rx="3"/>
<text x="766.0" y="237.68" text-anchor="middle" font-size="12" font-family="Arial" fill="#222">0.59</text>
<rect x="860" y="220" width="172" height="22" fill="#b27474" rx="3"/>
<text x="946.0" y="237.68" text-anchor="middle" font-size="12" font-family="Arial" fill="#222">0.59</text>
<text x="310" y="263.68" text-anchor="end" font-size="13" font-family="Arial" fill="#222">The Continent</text>
<rect x="320" y="246" width="172" height="22" fill="#d8b4b4" rx="3"/>
<text x="406.0" y="263.68" text-anchor="middle" font-size="12" font-family="Arial" fill="#222">0.30</text>
<rect x="500" y="246" width="172" height="22" fill="#e0c1c1" rx="3"/>
<text x="586.0" y="263.68" text-anchor="middle" font-size="12" font-family="Arial" fill="#222">0.24</text>
<rect x="680" y="246" width="172" height="22" fill="#872b2b" rx="3"/>
<text x="766.0" y="263.68" text-anchor="middle" font-size="12" font-family="Arial" fill="#fff">0.93</text>
<rect x="860" y="246" width="172" height="22" fill="#c08b8b" rx="3"/>
<text x="946.0" y="263.68" text-anchor="middle" font-size="12" font-family="Arial" fill="#222">0.49</text>
<text x="310" y="289.68" text-anchor="end" font-size="13" font-family="Arial" fill="#222">Everyday News</text>
<rect x="320" y="272" width="172" height="22" fill="#c79797" rx="3"/>
<text x="406.0" y="289.68" text-anchor="middle" font-size="12" font-family="Arial" fill="#222">0.43</text>
<rect x="500" y="272" width="172" height="22" fill="#e1c3c3" rx="3"/>
<text x="586.0" y="289.68" text-anchor="middle" font-size="12" font-family="Arial" fill="#222">0.23</text>
<rect x="680" y="272" width="172" height="22" fill="#a25858" rx="3"/>
<text x="766.0" y="289.68" text-anchor="middle" font-size="12" font-family="Arial" fill="#fff">0.73</text>
<rect x="860" y="272" width="172" height="22" fill="#c39191" rx="3"/>
<text x="946.0" y="289.68" text-anchor="middle" font-size="12" font-family="Arial" fill="#222">0.46</text>
<text x="310" y="315.68" text-anchor="end" font-size="13" font-family="Arial" fill="#222">International News</text>
<rect x="320" y="298" width="172" height="22" fill="#cda2a2" rx="3"/>
<text x="406.0" y="315.68" text-anchor="middle" font-size="12" font-family="Arial" fill="#222">0.38</text>
<rect x="500" y="298" width="172" height="22" fill="#edd6d6" rx="3"/>
<text x="586.0" y="315.68" text-anchor="middle" font-size="12" font-family="Arial" fill="#222">0.14</text>
<rect x="680" y="298" width="172" height="22" fill="#9c4e4e" rx="3"/>
<text x="766.0" y="315.68" text-anchor="middle" font-size="12" font-family="Arial" fill="#fff">0.77</text>
<rect x="860" y="298" width="172" height="22" fill="#c79797" rx="3"/>
<text x="946.0" y="315.68" text-anchor="middle" font-size="12" font-family="Arial" fill="#222">0.43</text>
<text x="310" y="341.68" text-anchor="end" font-size="13" font-family="Arial" fill="#222">International Times</text>
<rect x="320" y="324" width="172" height="22" fill="#e4c8c8" rx="3"/>
<text x="406.0" y="341.68" text-anchor="middle" font-size="12" font-family="Arial" fill="#222">0.21</text>
<rect x="500" y="324" width="172" height="22" fill="#e1c3c3" rx="3"/>
<text x="586.0" y="341.68" text-anchor="middle" font-size="12" font-family="Arial" fill="#222">0.23</text>
<rect x="680" y="324" width="172" height="22" fill="#933f3f" rx="3"/>
<text x="766.0" y="341.68" text-anchor="middle" font-size="12" font-family="Arial" fill="#fff">0.84</text>
<rect x="860" y="324" width="172" height="22" fill="#c89999" rx="3"/>
<text x="946.0" y="341.68" text-anchor="middle" font-size="12" font-family="Arial" fill="#222">0.43</text>
<text x="310" y="367.68" text-anchor="end" font-size="13" font-family="Arial" fill="#222">World Journal</text>
<rect x="320" y="350" width="172" height="22" fill="#ebd3d3" rx="3"/>
<text x="406.0" y="367.68" text-anchor="middle" font-size="12" font-family="Arial" fill="#222">0.15</text>
<rect x="500" y="350" width="172" height="22" fill="#e8cece" rx="3"/>
<text x="586.0" y="367.68" text-anchor="middle" font-size="12" font-family="Arial" fill="#222">0.18</text>
<rect x="680" y="350" width="172" height="22" fill="#b27373" rx="3"/>
<text x="766.0" y="367.68" text-anchor="middle" font-size="12" font-family="Arial" fill="#222">0.60</text>
<rect x="860" y="350" width="172" height="22" fill="#d7b2b2" rx="3"/>
<text x="946.0" y="367.68" text-anchor="middle" font-size="12" font-family="Arial" fill="#222">0.31</text>
<text x="310" y="393.68" text-anchor="end" font-size="13" font-family="Arial" fill="#222">The Guide</text>
<rect x="320" y="376" width="172" height="22" fill="#cca0a0" rx="3"/>
<text x="406.0" y="393.68" text-anchor="middle" font-size="12" font-family="Arial" fill="#222">0.39</text>
<rect x="500" y="376" width="172" height="22" fill="#f6e7e7" rx="3"/>
<text x="586.0" y="393.68" text-anchor="middle" font-size="12" font-family="Arial" fill="#222">0.06</text>
<rect x="680" y="376" width="172" height="22" fill="#ca9b9b" rx="3"/>
<text x="766.0" y="393.68" text-anchor="middle" font-size="12" font-family="Arial" fill="#222">0.41</text>
<rect x="860" y="376" width="172" height="22" fill="#d9b6b6" rx="3"/>
<text x="946.0" y="393.68" text-anchor="middle" font-size="12" font-family="Arial" fill="#222">0.29</text>
<text x="310" y="419.68" text-anchor="end" font-size="13" font-family="Arial" fill="#222">World Source</text>
<rect x="320" y="402" width="172" height="22" fill="#ecd6d6" rx="3"/>
<text x="406.0" y="419.68" text-anchor="middle" font-size="12" font-family="Arial" fill="#222">0.14</text>
<rect x="500" y="402" width="172" height="22" fill="#efdbdb" rx="3"/>
<text x="586.0" y="419.68" text-anchor="middle" font-size="12" font-family="Arial" fill="#222">0.12</text>
<rect x="680" y="402" width="172" height="22" fill="#b27474" rx="3"/>
<text x="766.0" y="419.68" text-anchor="middle" font-size="12" font-family="Arial" fill="#222">0.60</text>
<rect x="860" y="402" width="172" height="22" fill="#dab7b7" rx="3"/>
<text x="946.0" y="419.68" text-anchor="middle" font-size="12" font-family="Arial" fill="#222">0.29</text>
<text x="310" y="445.68" text-anchor="end" font-size="13" font-family="Arial" fill="#222">Kronos Star</text>
<rect x="320" y="428" width="172" height="22" fill="#d8b4b4" rx="3"/>
<text x="406.0" y="445.68" text-anchor="middle" font-size="12" font-family="Arial" fill="#222">0.30</text>
<rect x="500" y="428" width="172" height="22" fill="#dfbfbf" rx="3"/>
<text x="586.0" y="445.68" text-anchor="middle" font-size="12" font-family="Arial" fill="#222">0.25</text>
<rect x="680" y="428" width="172" height="22" fill="#e4c7c7" rx="3"/>
<text x="766.0" y="445.68" text-anchor="middle" font-size="12" font-family="Arial" fill="#222">0.21</text>
<rect x="860" y="428" width="172" height="22" fill="#debebe" rx="3"/>
<text x="946.0" y="445.68" text-anchor="middle" font-size="12" font-family="Arial" fill="#222">0.25</text>
<text x="310" y="471.68" text-anchor="end" font-size="13" font-family="Arial" fill="#222">The Wrap</text>
<rect x="320" y="454" width="172" height="22" fill="#d9b4b4" rx="3"/>
<text x="406.0" y="471.68" text-anchor="middle" font-size="12" font-family="Arial" fill="#222">0.30</text>
<rect x="500" y="454" width="172" height="22" fill="#fef4f4" rx="3"/>
<text x="586.0" y="471.68" text-anchor="middle" font-size="12" font-family="Arial" fill="#222">0.00</text>
<rect x="680" y="454" width="172" height="22" fill="#c59494" rx="3"/>
<text x="766.0" y="471.68" text-anchor="middle" font-size="12" font-family="Arial" fill="#222">0.45</text>
<rect x="860" y="454" width="172" height="22" fill="#dfbfbf" rx="3"/>
<text x="946.0" y="471.68" text-anchor="middle" font-size="12" font-family="Arial" fill="#222">0.25</text>
<text x="310" y="497.68" text-anchor="end" font-size="13" font-family="Arial" fill="#222">The Truth</text>
<rect x="320" y="480" width="172" height="22" fill="#e1c2c2" rx="3"/>
<text x="406.0" y="497.68" text-anchor="middle" font-size="12" font-family="Arial" fill="#222">0.23</text>
<rect x="500" y="480" width="172" height="22" fill="#fdf1f1" rx="3"/>
<text x="586.0" y="497.68" text-anchor="middle" font-size="12" font-family="Arial" fill="#222">0.01</text>
<rect x="680" y="480" width="172" height="22" fill="#c79797" rx="3"/>
<text x="766.0" y="497.68" text-anchor="middle" font-size="12" font-family="Arial" fill="#222">0.43</text>
<rect x="860" y="480" width="172" height="22" fill="#e1c4c4" rx="3"/>
<text x="946.0" y="497.68" text-anchor="middle" font-size="12" font-family="Arial" fill="#222">0.23</text>
<text x="310" y="523.68" text-anchor="end" font-size="13" font-family="Arial" fill="#222">The General Post</text>
<rect x="320" y="506" width="172" height="22" fill="#f3e2e2" rx="3"/>
<text x="406.0" y="523.68" text-anchor="middle" font-size="12" font-family="Arial" fill="#222">0.09</text>
<rect x="500" y="506" width="172" height="22" fill="#f4e3e3" rx="3"/>
<text x="586.0" y="523.68" text-anchor="middle" font-size="12" font-family="Arial" fill="#222">0.08</text>
<rect x="680" y="506" width="172" height="22" fill="#bf8989" rx="3"/>
<text x="766.0" y="523.68" text-anchor="middle" font-size="12" font-family="Arial" fill="#222">0.50</text>
<rect x="860" y="506" width="172" height="22" fill="#e2c5c5" rx="3"/>
<text x="946.0" y="523.68" text-anchor="middle" font-size="12" font-family="Arial" fill="#222">0.22</text>
<text x="310" y="549.68" text-anchor="end" font-size="13" font-family="Arial" fill="#222">The World</text>
<rect x="320" y="532" width="172" height="22" fill="#f6e7e7" rx="3"/>
<text x="406.0" y="549.68" text-anchor="middle" font-size="12" font-family="Arial" fill="#222">0.06</text>
<rect x="500" y="532" width="172" height="22" fill="#f4e2e2" rx="3"/>
<text x="586.0" y="549.68" text-anchor="middle" font-size="12" font-family="Arial" fill="#222">0.09</text>
<rect x="680" y="532" width="172" height="22" fill="#c18d8d" rx="3"/>
<text x="766.0" y="549.68" text-anchor="middle" font-size="12" font-family="Arial" fill="#222">0.48</text>
<rect x="860" y="532" width="172" height="22" fill="#e4c7c7" rx="3"/>
<text x="946.0" y="549.68" text-anchor="middle" font-size="12" font-family="Arial" fill="#222">0.21</text>
<text x="310" y="575.68" text-anchor="end" font-size="13" font-family="Arial" fill="#222">Worldwise</text>
<rect x="320" y="558" width="172" height="22" fill="#ecd5d5" rx="3"/>
<text x="406.0" y="575.68" text-anchor="middle" font-size="12" font-family="Arial" fill="#222">0.15</text>
<rect x="500" y="558" width="172" height="22" fill="#fcf0f0" rx="3"/>
<text x="586.0" y="575.68" text-anchor="middle" font-size="12" font-family="Arial" fill="#222">0.02</text>
<rect x="680" y="558" width="172" height="22" fill="#cb9e9e" rx="3"/>
<text x="766.0" y="575.68" text-anchor="middle" font-size="12" font-family="Arial" fill="#222">0.40</text>
<rect x="860" y="558" width="172" height="22" fill="#e6cccc" rx="3"/>
<text x="946.0" y="575.68" text-anchor="middle" font-size="12" font-family="Arial" fill="#222">0.19</text>
<text x="310" y="601.68" text-anchor="end" font-size="13" font-family="Arial" fill="#222">The Light of Truth</text>
<rect x="320" y="584" width="172" height="22" fill="#f4e3e3" rx="3"/>
<text x="406.0" y="601.68" text-anchor="middle" font-size="12" font-family="Arial" fill="#222">0.08</text>
<rect x="500" y="584" width="172" height="22" fill="#eed9d9" rx="3"/>
<text x="586.0" y="601.68" text-anchor="middle" font-size="12" font-family="Arial" fill="#222">0.13</text>
<rect x="680" y="584" width="172" height="22" fill="#d4adad" rx="3"/>
<text x="766.0" y="601.68" text-anchor="middle" font-size="12" font-family="Arial" fill="#222">0.33</text>
<rect x="860" y="584" width="172" height="22" fill="#e8cece" rx="3"/>
<text x="946.0" y="601.68" text-anchor="middle" font-size="12" font-family="Arial" fill="#222">0.18</text>
<text x="310" y="627.68" text-anchor="end" font-size="13" font-family="Arial" fill="#222">All News Today</text>
<rect x="320" y="610" width="172" height="22" fill="#e9d0d0" rx="3"/>
<text x="406.0" y="627.68" text-anchor="middle" font-size="12" font-family="Arial" fill="#222">0.17</text>
<rect x="500" y="610" width="172" height="22" fill="#fff5f5" rx="3"/>
<text x="586.0" y="627.68" text-anchor="middle" font-size="12" font-family="Arial" fill="#222">0.00</text>
<rect x="680" y="610" width="172" height="22" fill="#dbb9b9" rx="3"/>
<text x="766.0" y="627.68" text-anchor="middle" font-size="12" font-family="Arial" fill="#222">0.28</text>
<rect x="860" y="610" width="172" height="22" fill="#ecd5d5" rx="3"/>
<text x="946.0" y="627.68" text-anchor="middle" font-size="12" font-family="Arial" fill="#222">0.15</text>
<text x="310" y="653.68" text-anchor="end" font-size="13" font-family="Arial" fill="#222">Daily Pegasus</text>
<rect x="320" y="636" width="172" height="22" fill="#e7cdcd" rx="3"/>
<text x="406.0" y="653.68" text-anchor="middle" font-size="12" font-family="Arial" fill="#222">0.19</text>
<rect x="500" y="636" width="172" height="22" fill="#fff5f5" rx="3"/>
<text x="586.0" y="653.68" text-anchor="middle" font-size="12" font-family="Arial" fill="#222">0.00</text>
<rect x="680" y="636" width="172" height="22" fill="#e3c7c7" rx="3"/>
<text x="766.0" y="653.68" text-anchor="middle" font-size="12" font-family="Arial" fill="#222">0.21</text>
<rect x="860" y="636" width="172" height="22" fill="#eed8d8" rx="3"/>
<text x="946.0" y="653.68" text-anchor="middle" font-size="12" font-family="Arial" fill="#222">0.13</text>
<text x="310" y="679.68" text-anchor="end" font-size="13" font-family="Arial" fill="#222">Homeland Illumination</text>
<rect x="320" y="662" width="172" height="22" fill="#edd7d7" rx="3"/>
<text x="406.0" y="679.68" text-anchor="middle" font-size="12" font-family="Arial" fill="#222">0.14</text>
<rect x="500" y="662" width="172" height="22" fill="#f6e5e5" rx="3"/>
<text x="586.0" y="679.68" text-anchor="middle" font-size="12" font-family="Arial" fill="#222">0.07</text>
<rect x="680" y="662" width="172" height="22" fill="#ecd5d5" rx="3"/>
<text x="766.0" y="679.68" text-anchor="middle" font-size="12" font-family="Arial" fill="#222">0.15</text>
<rect x="860" y="662" width="172" height="22" fill="#efdbdb" rx="3"/>
<text x="946.0" y="679.68" text-anchor="middle" font-size="12" font-family="Arial" fill="#222">0.12</text>
<text x="310" y="705.68" text-anchor="end" font-size="13" font-family="Arial" fill="#222">The Tulip</text>
<rect x="320" y="688" width="172" height="22" fill="#f8e9e9" rx="3"/>
<text x="406.0" y="705.68" text-anchor="middle" font-size="12" font-family="Arial" fill="#222">0.05</text>
<rect x="500" y="688" width="172" height="22" fill="#faeded" rx="3"/>
<text x="586.0" y="705.68" text-anchor="middle" font-size="12" font-family="Arial" fill="#222">0.03</text>
<rect x="680" y="688" width="172" height="22" fill="#dfbfbf" rx="3"/>
<text x="766.0" y="705.68" text-anchor="middle" font-size="12" font-family="Arial" fill="#222">0.25</text>
<rect x="860" y="688" width="172" height="22" fill="#f0dddd" rx="3"/>
<text x="946.0" y="705.68" text-anchor="middle" font-size="12" font-family="Arial" fill="#222">0.11</text>
<text x="310" y="731.68" text-anchor="end" font-size="13" font-family="Arial" fill="#222">Who What News</text>
<rect x="320" y="714" width="172" height="22" fill="#fef4f4" rx="3"/>
<text x="406.0" y="731.68" text-anchor="middle" font-size="12" font-family="Arial" fill="#222">0.00</text>
<rect x="500" y="714" width="172" height="22" fill="#fbeeee" rx="3"/>
<text x="586.0" y="731.68" text-anchor="middle" font-size="12" font-family="Arial" fill="#222">0.03</text>
<rect x="680" y="714" width="172" height="22" fill="#dbb8b8" rx="3"/>
<text x="766.0" y="731.68" text-anchor="middle" font-size="12" font-family="Arial" fill="#222">0.28</text>
<rect x="860" y="714" width="172" height="22" fill="#f1dede" rx="3"/>
<text x="946.0" y="731.68" text-anchor="middle" font-size="12" font-family="Arial" fill="#222">0.10</text>
<text x="310" y="757.68" text-anchor="end" font-size="13" font-family="Arial" fill="#222">The Orb</text>
<rect x="320" y="740" width="172" height="22" fill="#fcf0f0" rx="3"/>
<text x="406.0" y="757.68" text-anchor="middle" font-size="12" font-family="Arial" fill="#222">0.02</text>
<rect x="500" y="740" width="172" height="22" fill="#fef4f4" rx="3"/>
<text x="586.0" y="757.68" text-anchor="middle" font-size="12" font-family="Arial" fill="#222">0.00</text>
<rect x="680" y="740" width="172" height="22" fill="#e0c0c0" rx="3"/>
<text x="766.0" y="757.68" text-anchor="middle" font-size="12" font-family="Arial" fill="#222">0.24</text>
<rect x="860" y="740" width="172" height="22" fill="#f3e2e2" rx="3"/>
<text x="946.0" y="757.68" text-anchor="middle" font-size="12" font-family="Arial" fill="#222">0.09</text>
<text x="310" y="783.68" text-anchor="end" font-size="13" font-family="Arial" fill="#222">Centrum Sentinel</text>
<rect x="320" y="766" width="172" height="22" fill="#fff5f5" rx="3"/>
<text x="406.0" y="783.68" text-anchor="middle" font-size="12" font-family="Arial" fill="#222">0.00</text>
<rect x="500" y="766" width="172" height="22" fill="#ecd5d5" rx="3"/>
<text x="586.0" y="783.68" text-anchor="middle" font-size="12" font-family="Arial" fill="#222">0.14</text>
<rect x="680" y="766" width="172" height="22" fill="#fff5f5" rx="3"/>
<text x="766.0" y="783.68" text-anchor="middle" font-size="12" font-family="Arial" fill="#222">0.00</text>
<rect x="860" y="766" width="172" height="22" fill="#f8eaea" rx="3"/>
<text x="946.0" y="783.68" text-anchor="middle" font-size="12" font-family="Arial" fill="#222">0.05</text>
<text x="310" y="809.68" text-anchor="end" font-size="13" font-family="Arial" fill="#222">Tethys News</text>
<rect x="320" y="792" width="172" height="22" fill="#fff5f5" rx="3"/>
<text x="406.0" y="809.68" text-anchor="middle" font-size="12" font-family="Arial" fill="#222">0.00</text>
<rect x="500" y="792" width="172" height="22" fill="#edd7d7" rx="3"/>
<text x="586.0" y="809.68" text-anchor="middle" font-size="12" font-family="Arial" fill="#222">0.14</text>
<rect x="680" y="792" width="172" height="22" fill="#fff5f5" rx="3"/>
<text x="766.0" y="809.68" text-anchor="middle" font-size="12" font-family="Arial" fill="#222">0.00</text>
<rect x="860" y="792" width="172" height="22" fill="#f9ebeb" rx="3"/>
<text x="946.0" y="809.68" text-anchor="middle" font-size="12" font-family="Arial" fill="#222">0.05</text>
<text x="310" y="835.68" text-anchor="end" font-size="13" font-family="Arial" fill="#222">Modern Rubicon</text>
<rect x="320" y="818" width="172" height="22" fill="#fff5f5" rx="3"/>
<text x="406.0" y="835.68" text-anchor="middle" font-size="12" font-family="Arial" fill="#222">0.00</text>
<rect x="500" y="818" width="172" height="22" fill="#f0dbdb" rx="3"/>
<text x="586.0" y="835.68" text-anchor="middle" font-size="12" font-family="Arial" fill="#222">0.12</text>
<rect x="680" y="818" width="172" height="22" fill="#fff5f5" rx="3"/>
<text x="766.0" y="835.68" text-anchor="middle" font-size="12" font-family="Arial" fill="#222">0.00</text>
<rect x="860" y="818" width="172" height="22" fill="#faecec" rx="3"/>
<text x="946.0" y="835.68" text-anchor="middle" font-size="12" font-family="Arial" fill="#222">0.04</text>
<rect x="320" y="880" width="40" height="14" fill="#fff5f5"/>
<rect x="360" y="880" width="40" height="14" fill="#efdada"/>
<rect x="400" y="880" width="40" height="14" fill="#dfbfbf"/>
<rect x="440" y="880" width="40" height="14" fill="#cfa4a4"/>
<rect x="480" y="880" width="40" height="14" fill="#bf8989"/>
<rect x="520" y="880" width="40" height="14" fill="#af6e6e"/>
<rect x="560" y="880" width="40" height="14" fill="#9f5353"/>
<rect x="600" y="880" width="40" height="14" fill="#8f3838"/>
<rect x="640" y="880" width="40" height="14" fill="#7f1d1d"/>
<text x="320" y="874" font-size="12" font-family="Arial" fill="#333">Low</text>
<text x="680" y="874" text-anchor="end" font-size="12" font-family="Arial" fill="#333">High</text>
</svg>