<svg xmlns="http://www.w3.org/2000/svg" width="1200" height="720">
<rect width="100%" height="100%" fill="white"/>
<text x="600" y="36" text-anchor="middle" font-size="28" font-family="Arial" fill="#111">Sentiment Timeline by Event</text>
<text x="600" y="58" text-anchor="middle" font-size="14" font-family="Arial" fill="#555">Average article sentiment over time for Fire, Hostage, and Standoff events</text>
<line x1="90" y1="630.0" x2="1150" y2="630.0" stroke="#e5e7eb" stroke-width="1"/>
<text x="80" y="634.0" text-anchor="end" font-size="12" font-family="Arial" fill="#444">-1.0</text>
<line x1="90" y1="490.0" x2="1150" y2="490.0" stroke="#e5e7eb" stroke-width="1"/>
<text x="80" y="494.0" text-anchor="end" font-size="12" font-family="Arial" fill="#444">-0.5</text>
<line x1="90" y1="350.0" x2="1150" y2="350.0" stroke="#d1d5db" stroke-width="1"/>
<text x="80" y="354.0" text-anchor="end" font-size="12" font-family="Arial" fill="#444">0.0</text>
<line x1="90" y1="210.0" x2="1150" y2="210.0" stroke="#e5e7eb" stroke-width="1"/>
<text x="80" y="214.0" text-anchor="end" font-size="12" font-family="Arial" fill="#444">0.5</text>
<line x1="90" y1="70.0" x2="1150" y2="70.0" stroke="#e5e7eb" stroke-width="1"/>
<text x="80" y="74.0" text-anchor="end" font-size="12" font-family="Arial" fill="#444">1.0</text>
<line x1="90.0" y1="630" x2="90.0" y2="636" stroke="#9ca3af"/>
<text x="90.0" y="652" text-anchor="middle" font-size="11" font-family="Arial" fill="#444">1995-11</text>
<line x1="196.0" y1="630" x2="196.0" y2="636" stroke="#9ca3af"/>
<text x="196.0" y="652" text-anchor="middle" font-size="11" font-family="Arial" fill="#444">1998-04</text>
<line x1="302.0" y1="630" x2="302.0" y2="636" stroke="#9ca3af"/>
<text x="302.0" y="652" text-anchor="middle" font-size="11" font-family="Arial" fill="#444">2000-08</text>
<line x1="408.0" y1="630" x2="408.0" y2="636" stroke="#9ca3af"/>
<text x="408.0" y="652" text-anchor="middle" font-size="11" font-family="Arial" fill="#444">2009-02</text>
<line x1="514.0" y1="630" x2="514.0" y2="636" stroke="#9ca3af"/>
<text x="514.0" y="652" text-anchor="middle" font-size="11" font-family="Arial" fill="#444">2009-06</text>
<line x1="620.0" y1="630" x2="620.0" y2="636" stroke="#9ca3af"/>
<text x="620.0" y="652" text-anchor="middle" font-size="11" font-family="Arial" fill="#444">2010-06</text>
<line x1="726.0" y1="630" x2="726.0" y2="636" stroke="#9ca3af"/>
<text x="726.0" y="652" text-anchor="middle" font-size="11" font-family="Arial" fill="#444">2012-06</text>
<line x1="832.0" y1="630" x2="832.0" y2="636" stroke="#9ca3af"/>
<text x="832.0" y="652" text-anchor="middle" font-size="11" font-family="Arial" fill="#444">2013-02</text>
<line x1="938.0" y1="630" x2="938.0" y2="636" stroke="#9ca3af"/>
<text x="938.0" y="652" text-anchor="middle" font-size="11" font-family="Arial" fill="#444">2013-06</text>
<line x1="1044.0" y1="630" x2="1044.0" y2="636" stroke="#9ca3af"/>
<text x="1044.0" y="652" text-anchor="middle" font-size="11" font-family="Arial" fill="#444">2013-11</text>
<line x1="1150.0" y1="630" x2="1150.0" y2="636" stroke="#9ca3af"/>
<text x="1150.0" y="652" text-anchor="middle" font-size="11" font-family="Arial" fill="#444">2014-01</text>
<line x1="90" y1="70" x2="90" y2="630" stroke="#6b7280"/>
<line x1="90" y1="630" x2="1150" y2="630" stroke="#6b7280"/>
<polyline points="90.0,406.0 196.0,406.0 302.0,551.4 408.0,584.0 514.0,584.0 620.0,373.3 726.0,461.2 832.0,503.3 938.0,503.3 1044.0,410.8 1150.0,502.7" fill="none" stroke="#dc2626" stroke-width="3"/>
<circle cx="90.0" cy="406.0" r="3" fill="#dc2626"/>
<circle cx="302.0" cy="551.4" r="3" fill="#dc2626"/>
<circle cx="408.0" cy="584.0" r="3" fill="#dc2626"/>
<circle cx="620.0" cy="373.3" r="3" fill="#dc2626"/>
<circle cx="726.0" cy="461.2" r="3" fill="#dc2626"/>
<circle cx="832.0" cy="503.3" r="3" fill="#dc2626"/>
<circle cx="1044.0" cy="410.8" r="3" fill="#dc2626"/>
<circle cx="1150.0" cy="502.7" r="3" fill="#dc2626"/>
<polyline points="90.0,350.0 196.0,350.0 302.0,350.0 408.0,350.0 514.0,350.0 620.0,350.0 726.0,350.0 832.0,350.0 938.0,350.0 1044.0,350.0 1150.0,508.7" fill="none" stroke="#d97706" stroke-width="3"/>
<circle cx="1150.0" cy="508.7" r="3" fill="#d97706"/>
<polyline points="90.0,350.0 196.0,161.0 302.0,161.0 408.0,161.0 514.0,560.0 620.0,427.8 726.0,472.5 832.0,462.0 938.0,504.0 1044.0,504.0 1150.0,504.0" fill="none" stroke="#2563eb" stroke-width="3"/>
<circle cx="196.0" cy="161.0" r="3" fill="#2563eb"/>
<circle cx="514.0" cy="560.0" r="3" fill="#2563eb"/>
<circle cx="620.0" cy="427.8" r="3" fill="#2563eb"/>
<circle cx="726.0" cy="472.5" r="3" fill="#2563eb"/>
<circle cx="832.0" cy="462.0" r="3" fill="#2563eb"/>
<circle cx="938.0" cy="504.0" r="3" fill="#2563eb"/>
<line x1="840" y1="88" x2="868" y2="88" stroke="#dc2626" stroke-width="4"/>
<text x="876" y="92" font-size="13" font-family="Arial" fill="#222">Fire</text>
<line x1="840" y1="112" x2="868" y2="112" stroke="#d97706" stroke-width="4"/>
<text x="876" y="116" font-size="13" font-family="Arial" fill="#222">Hostage</text>
<line x1="840" y1="136" x2="868" y2="136" stroke="#2563eb" stroke-width="4"/>
<text x="876" y="140" font-size="13" font-family="Arial" fill="#222">Standoff</text>
<text x="38" y="330" transform="rotate(-90 38 330)" font-size="13" font-family="Arial" fill="#333">Sentiment score (positive to negative)</text>
<text x="600" y="700" text-anchor="middle" font-size="13" font-family="Arial" fill="#333">Month</text>
</svg>